<svg t="1684854419525" class="icon" viewBox="0 0 1024 1024" version="1.1" xmlns="http://www.w3.org/2000/svg" p-id="51416" width="200" height="200"><path d="M424.0384 529.7664H221.7472c-14.1312 0-25.6-11.4688-25.6-25.6s11.4688-25.6 25.6-25.6h202.2912c14.1312 0 25.6 11.4688 25.6 25.6s-11.4688 25.6-25.6 25.6z" ></path><path d="M828.7744 146.944H191.5392c-71.8336 0-130.304 58.4704-130.304 130.304v464.1792c0 71.8336 58.4704 130.304 130.304 130.304h368.4864c14.1312 0 25.6-11.4688 25.6-25.6s-11.4688-25.6-25.6-25.6H191.5392c-43.6224 0-79.104-35.4816-79.104-79.104V386.9696h795.392v122.0096c0 14.1312 11.4688 25.6 25.6 25.6s25.6-11.4688 25.6-25.6V277.248c0-71.8336-58.4192-130.304-130.2528-130.304zM112.4352 335.7696V277.248c0-43.6224 35.4816-79.104 79.104-79.104h637.2352c43.6224 0 79.104 35.4816 79.104 79.104v58.5216H112.4352z"  ></path><path d="M752.7424 868.2496c-103.0144 0-186.88-83.8144-186.88-186.88s83.8144-186.88 186.88-186.88 186.88 83.8144 186.88 186.88c-0.0512 103.0656-83.8656 186.88-186.88 186.88z m0-322.5088c-74.8032 0-135.68 60.8768-135.68 135.68s60.8768 135.68 135.68 135.68 135.68-60.8768 135.68-135.68-60.8768-135.68-135.68-135.68z" ></path><path d="M728.8832 762.9312c-0.4096 0-0.8192 0-1.2288-0.0512a25.7024 25.7024 0 0 1-18.3296-9.0624l-47.7696-56.5248a25.63072 25.63072 0 0 1 3.0208-36.096 25.63072 25.63072 0 0 1 36.096 3.0208l30.0544 35.584 73.6768-71.7312a25.5744 25.5744 0 0 1 36.1984 0.512 25.5744 25.5744 0 0 1-0.512 36.1984l-93.3376 90.88a25.7024 25.7024 0 0 1-17.8688 7.2704z" ></path></svg>
