<svg  class="icon" viewBox="0 0 1024 1024" version="1.1" xmlns="http://www.w3.org/2000/svg" p-id="6025" width="200" height="200"><path d="M832 761.6v38.4c0 89.6-70.4 160-160 160h-192C390.4 960 320 889.6 320 800V640c-76.8 0-179.2-51.2-230.4-281.6-25.6-128-25.6-256-25.6-262.4V64h96c19.2 0 32 12.8 32 32s-12.8 32-32 32H128c6.4 147.2 44.8 448 192 448h64c96 0 140.8-128 166.4-230.4 19.2-83.2 25.6-172.8 25.6-217.6h-32c-19.2 0-32-12.8-32-32s12.8-32 32-32H640v32c0 6.4 0 134.4-25.6 262.4C563.2 588.8 460.8 640 384 640v160c0 51.2 44.8 96 96 96h192c51.2 0 96-44.8 96-96v-38.4c-70.4-12.8-128-76.8-128-153.6C640 518.4 710.4 448 800 448S960 518.4 960 608c0 76.8-57.6 140.8-128 153.6z" ></path></svg>
