<svg  class="icon" viewBox="0 0 1024 1024" version="1.1" xmlns="http://www.w3.org/2000/svg" p-id="48635" width="200" height="200"><path d="M550.864 592.774V732.72c0 2.463 1.018 4.924 3.044 6.81 2.023 1.885 4.701 2.83 7.364 2.83h76.514c2.676 0 5.338-0.945 7.375-2.83 2.024-1.887 3.042-4.347 3.042-6.81V546.228l-77.808 61.937-19.531-15.391zM223.824 732.72c0 2.463 1.022 4.94 3.059 6.81 2.025 1.885 4.685 2.83 7.357 2.83h76.504c2.677 0 5.34-0.945 7.363-2.83 2.039-1.887 3.053-4.347 3.053-6.81V589.958l-97.338 74.262v68.501h0.001z m163.488-193.268V732.72c0 2.463 1.018 4.924 3.057 6.81 2.04 1.885 4.701 2.83 7.36 2.83h76.534c2.677 0 5.338-0.945 7.359-2.83 2.04-1.887 3.06-4.347 3.06-6.81V540.667l-48.654-38.32-48.716 37.106z m327.07 193.268c0 2.463 1.004 4.94 3.028 6.81 2.037 1.885 4.715 2.83 7.379 2.83h76.548c2.676 0 5.334-0.945 7.36-2.83 2.034-1.887 3.055-4.347 3.055-6.81V415.975l-97.37 77.551v239.195z m-16.789-480.745c-1.37 0-2.68 0.736-3.22 1.988-0.557 1.235-0.192 2.606 0.766 3.507l73.171 66.528-197.915 157.619L436.03 375.761 223.27 538.1v70.129l212.76-162.326 134.366 105.834L809.46 361.38l60.445 54.989c0.973 0.872 2.452 1.184 3.793 0.662 1.32-0.515 2.118-1.691 2.118-2.942V255.171a3.07 3.07 0 0 0-1.019-2.266 3.643 3.643 0 0 0-2.454-0.93h-174.75z m0 0" p-id="48636"></path><path d="M515.08 969.161c-11.948 0-23.938-0.472-35.967-1.415-60.683-4.762-118.633-21.274-172.24-49.078-51.764-26.847-97.3-63.036-135.343-107.556s-66.684-95.145-85.129-150.462C67.298 603.36 60.028 543.543 64.79 482.86c4.763-60.684 21.275-118.635 49.078-172.243 26.847-51.765 63.035-97.3 107.555-135.343s95.144-66.684 150.463-85.129c57.29-19.102 117.107-26.372 177.789-21.611 66.555 5.223 129.526 24.459 187.16 57.177 13.931 7.91 18.815 25.613 10.906 39.546-7.909 13.931-25.612 18.815-39.546 10.906-50.184-28.487-105.046-45.24-163.06-49.792-216.022-16.96-405.558 145.005-422.509 361.027-16.95 216.023 145.004 405.56 361.026 422.512a396.632 396.632 0 0 0 31.025 1.217c202.87 0.01 375.352-156.627 391.487-362.246a399.45 399.45 0 0 0 1.224-32.01c-0.033-16.02 12.926-29.034 28.946-29.068h0.062c15.992 0 28.973 12.947 29.007 28.946A459.414 459.414 0 0 1 964 553.42c-4.761 60.684-21.275 118.635-49.078 172.242-26.847 51.766-63.035 97.302-107.555 135.345s-95.145 66.684-150.464 85.129C610.97 961.45 563.406 969.16 515.08 969.16z" ></path></svg>
