<svg  class="icon" viewBox="0 0 1024 1024" version="1.1" xmlns="http://www.w3.org/2000/svg" p-id="7289" width="200" height="200"><path d="M711.68 312.32c-51.2-51.2-122.88-81.92-199.68-81.92s-143.36 30.72-199.68 81.92c-51.2 51.2-81.92 122.88-81.92 199.68s30.72 143.36 81.92 199.68c51.2 51.2 122.88 81.92 199.68 81.92s143.36-30.72 199.68-81.92c51.2-51.2 81.92-122.88 81.92-199.68s-30.72-143.36-81.92-199.68zM512 737.28c-122.88 0-225.28-102.4-225.28-225.28 0-122.88 102.4-225.28 225.28-225.28 122.88 0 225.28 102.4 225.28 225.28 0 122.88-102.4 225.28-225.28 225.28z" ></path><path d="M512 0C230.4 0 0 230.4 0 512c0 117.76 40.96 225.28 107.52 312.32l40.96-40.96c-51.2-66.56-81.92-148.48-87.04-235.52h220.16V491.52H56.32C66.56 256 256 66.56 491.52 56.32v209.92h56.32V56.32c230.4 20.48 409.6 204.8 419.84 435.2h-215.04v56.32h215.04c-15.36 225.28-194.56 399.36-419.84 419.84v-215.04H491.52v215.04c-81.92-5.12-163.84-30.72-230.4-71.68l-35.84 40.96C312.32 993.28 409.6 1024 512 1024c281.6 0 512-230.4 512-512S793.6 0 512 0z" ></path><path d="M512 419.84c-51.2 0-92.16 40.96-92.16 92.16s40.96 92.16 92.16 92.16 92.16-40.96 92.16-92.16S563.2 419.84 512 419.84z" ></path></svg>
