<svg  class="icon" viewBox="0 0 1024 1024" version="1.1" xmlns="http://www.w3.org/2000/svg" p-id="11395" width="200" height="200"><path d="M515.403294 3.072C234.631529 3.072 6.219294 231.484235 6.219294 512.256S234.631529 1021.44 515.403294 1021.44s509.184-228.412235 509.184-509.184S796.16 3.072 515.403294 3.072z m0 988.235294c-264.146824 0-479.066353-214.904471-479.066353-479.066353S251.256471 33.189647 515.403294 33.189647s479.066353 214.904471 479.066353 479.066353-214.919529 479.051294-479.066353 479.051294z" p-id="11396"></path><path d="M268.348235 507.904c0.903529-0.677647 89.780706-68.126118 136.688941-106.631529 18.778353-15.390118 45.778824-42.029176 56.515765-52.766118a1033.080471 1033.080471 0 0 0 57.825883-63.533177c22.377412 26.729412 28.129882 32.466824 45.68847 49.874824l12.333177 12.272941c4.141176 4.141176 8.764235 8.854588 13.613176 13.778824 12.8 12.995765 27.301647 27.738353 38.686118 38.068706 51.516235 46.682353 122.142118 88.184471 125.138823 89.946353a15.043765 15.043765 0 0 0 15.209412-25.99153c-0.707765-0.406588-70.957176-41.728-120.109176-86.272-10.767059-9.743059-24.937412-24.154353-37.451295-36.879059-4.909176-4.984471-9.592471-9.743059-13.793882-13.94447l-12.423529-12.363294c-18.040471-17.904941-23.055059-22.934588-47.450353-52.193883l2.981647-3.764706a15.058824 15.058824 0 1 0-23.762824-18.492235c-0.361412 0.466824-37.074824 47.495529-77.778823 88.214588-21.699765 21.699765-41.999059 40.673882-54.317177 50.763294-46.471529 38.144-134.896941 105.246118-135.80047 105.923765a15.058824 15.058824 0 0 0 18.206117 23.988706z" p-id="11397"></path><path d="M768 707.764706H572.235294V557.176471h105.411765a15.058824 15.058824 0 1 0 0-30.117647h-105.411765v-90.352942a15.058824 15.058824 0 1 0-30.117647 0v271.058824h-90.352941V557.176471a15.058824 15.058824 0 1 0-30.117647 0v150.588235H271.058824a15.058824 15.058824 0 1 0 0 30.117647h496.941176a15.058824 15.058824 0 1 0 0-30.117647z" ></path></svg>
