<svg  class="icon" viewBox="0 0 1024 1024" version="1.1" xmlns="http://www.w3.org/2000/svg"  width="200" height="200"><path d="M681.792 0.32H195.616a49.92 49.92 0 0 0-50.144 49.664v924c0 27.488 22.432 49.696 50.144 49.696h609.792c27.712 0 50.112-22.176 50.112-49.696V256L681.792 0.32z m-55.264 360.896h35.456a71.84 71.84 0 0 1 71.872 71.904v44.032H626.528V361.216z m-24.768 8.288v124.192c0 22.912-18.56 41.408-41.376 41.408H436.256a41.344 41.344 0 0 1-41.344-41.408V369.504h-0.032c0-2.912 0.256-5.664 0.832-8.32h205.216c0.512 2.656 0.832 5.44 0.832 8.32z m-37.184 186.304v107.744H444.288V555.808h120.288zM374.816 85.632h22.848l27.2 81.376c2.528 7.52 4.32 13.248 5.504 16.992 1.312-4.16 3.36-10.336 6.112-18.464L464 85.632h20.48v114.912h-14.72v-96.16l-33.376 96.16h-13.728L389.44 102.72v97.824h-14.624V85.632z m3.488 275.584v119.936H279.2V433.12a71.904 71.904 0 0 1 71.936-71.904h27.168zM333.248 85.632h15.2v114.912h-15.2V85.632zM241.28 197.92a36.16 36.16 0 0 1-16.512-13.664 38.176 38.176 0 0 1-6.304-20.64l14.336-1.248c0.64 5.728 2.24 10.432 4.736 14.176a25.76 25.76 0 0 0 11.552 8.896c5.248 2.304 11.104 3.424 17.632 3.424 5.792 0 10.912-0.864 15.36-2.56A21.632 21.632 0 0 0 292 179.2a16.672 16.672 0 0 0 3.264-9.824 15.04 15.04 0 0 0-3.136-9.44 23.296 23.296 0 0 0-10.368-6.816 203.712 203.712 0 0 0-20.448-5.632c-10.56-2.496-17.952-4.864-22.176-7.168a31.296 31.296 0 0 1-12.288-10.688 26.304 26.304 0 0 1-4-14.272c0-5.792 1.632-11.232 4.928-16.288a30.72 30.72 0 0 1 14.432-11.488c6.336-2.592 13.344-3.936 21.088-3.936 8.544 0 16 1.344 22.56 4.128 6.432 2.784 11.488 6.816 14.944 12.16 3.488 5.312 5.376 11.328 5.632 18.112l-14.528 1.088c-0.832-7.296-3.456-12.768-7.968-16.48-4.544-3.744-11.2-5.6-20.032-5.6-9.216 0-15.904 1.696-20.064 5.088a15.04 15.04 0 0 0-6.368 12.192 13.12 13.12 0 0 0 4.48 10.176c2.944 2.656 10.56 5.408 22.944 8.192 12.352 2.816 20.8 5.248 25.408 7.328 6.688 3.072 11.616 6.976 14.816 11.744 3.2 4.736 4.768 10.144 4.768 16.352 0 6.112-1.76 11.84-5.28 17.28-3.456 5.376-8.544 9.6-15.072 12.608a52.8 52.8 0 0 1-22.112 4.48c-10.368 0-19.104-1.536-26.144-4.576z m136.992 660.096h-27.168a71.84 71.84 0 0 1-71.936-71.84v-52.288h99.104v124.128z m0-144.864v4.192h-99.104V497.728h99.104v8.416a49.6 49.6 0 0 0 49.472 49.6V663.52a49.696 49.696 0 0 0-49.472 49.632z m223.456 136.736c0 2.784-0.352 5.536-0.832 8.16H395.68a38.176 38.176 0 0 1-0.8-8.16V725.632c0-22.88 18.528-41.472 41.344-41.472h124.16c22.816 0 41.376 18.592 41.376 41.472v124.256z m-23.008-186.24h2.112V555.424a49.504 49.504 0 0 0 45.696-49.28V493.76h107.36v227.776h-107.36v-8.384a49.6 49.6 0 0 0-47.808-49.504z m155.232 122.528a71.904 71.904 0 0 1-71.904 71.84h-35.424V738.08h107.328v48.096z"  ></path></svg>
