<svg  class="icon" viewBox="0 0 1024 1024" version="1.1" xmlns="http://www.w3.org/2000/svg" p-id="14104" id="mx_n_1688798789705" width="200" height="200"><path d="M753.108114 318.178743 566.857143 504.427886 438.857143 376.427886 188.214857 627.072 214.072686 652.928 438.857143 428.143543 566.857143 556.143543 778.964114 344.036571 809.393371 374.429257 841.142857 256 722.678857 287.749486Z"></path><path d="M950.857143 109.714286 548.571429 109.714286 548.571429 73.142857c0-20.214857-16.356571-36.571429-36.571429-36.571429s-36.571429 16.356571-36.571429 36.571429l0 36.571429L73.142857 109.714286c-20.214857 0-36.571429 16.374857-36.571429 36.571429l0 36.571429 0 548.571429 0 36.571429c0 20.214857 16.356571 36.571429 36.571429 36.571429l167.714743 0L83.858286 961.570743c-14.2848 14.2848-14.2848 37.429029 0 51.713829C91.000686 1020.4288 100.357486 1024 109.714286 1024s18.7136-3.5712 25.857829-10.7136L344.285257 804.571429l335.429486 0L888.429714 1013.2864C895.572114 1020.4288 904.928914 1024 914.285714 1024s18.7136-3.5712 25.857829-10.7136c14.2848-14.2848 14.2848-37.429029 0-51.713829L783.1424 804.571429 950.857143 804.571429c20.214857 0 36.571429-16.356571 36.571429-36.571429l0-36.571429L987.428571 182.857143 987.428571 146.285714C987.428571 126.089143 971.072 109.714286 950.857143 109.714286zM109.714286 731.428571 109.714286 182.857143l804.571429 0 0 548.571429L109.714286 731.428571z" ></path></svg>
